<svg width="25" height="34" xmlns="http://www.w3.org/2000/svg">
  <g fill="#FFF" fill-rule="nonzero">
    <path d="M12.54 18.36V4.28a4.28 4.28 0 00-8.56 0v14.08a8.23 8.23 0 004.28 15.28 8.25 8.25 0 004.28-15.28zM8.26 32.08A6.68 6.68 0 015.13 19.5l.41-.22v-4.26h1a.78.78 0 000-1.56h-1v-2.6h.92a.78.78 0 000-1.56h-.92V6.72h.92a.78.78 0 000-1.56h-.92v-.88a2.72 2.72 0 015.43 0v15l.42.23a6.67 6.67 0 01-3.13 12.57z"/>
    <path d="M9.72 20.67v-3.91a1.46 1.46 0 00-2.92 0v3.91a5.07 5.07 0 102.92 0zM23.65 11.14l-2.1-1.54 2.1-1.55c.5-.37.61-1.09.24-1.6-.36-.48-1.1-.6-1.6-.24l-1.53 1.13v-1.9a1.14 1.14 0 00-2.28 0v1.9l-1.54-1.13a1.17 1.17 0 00-1.59.24c-.18.25-.25.55-.2.85.04.3.2.57.44.75l2.1 1.54-2.1 1.55a1.13 1.13 0 00-.24 1.6c.36.48 1.1.6 1.6.24l1.53-1.13v1.9a1.14 1.14 0 002.28 0v-1.9l1.54 1.13c.48.36 1.23.24 1.59-.24.37-.51.26-1.23-.24-1.6z"/>
  </g>
</svg>
