<svg width="24" height="32" xmlns="http://www.w3.org/2000/svg">
  <path d="M23.5 11l-.1-.1a.8.8 0 00-.5-.3h-.3l-.3.2-.7.7.7-2c.5-1.1.2-2.4-.6-3.3 2-1.4 2-2.5 1.9-3-.2-.7-.7-1.1-1.5-1.2-.7 0-1.4.2-2.1.8-.2-1-.6-1.6-1.1-2-.6-.5-1.3-.5-1.9-.1-.5.3-1.1 1.2-.6 3.5-1.2.1-2.3 1-2.7 2.1L12 10.6h-.3l-.3-2c-1-4.8-4-8.2-6.5-7.7-1.8.4-3 2.8-3 6v.4c0 1 0 2.2.3 3.4l.3 1-.9-.9-.2-.1H.8l-.2.1-.2.3V30c0 .9.8 1.6 1.7 1.6h19.7c1 0 1.8-.7 1.8-1.6V11.4a.7.7 0 000-.3zm-1.9-7.4h.5c0 .1-.3.8-1.8 1.7l-.4-.2c.7-1.1 1.5-1.5 1.7-1.5zm-3.8-1.7c.1 0 .3.1.4.4.2.2.5 1 .2 2.3l-.4-.2c-.5-1.6-.3-2.3-.2-2.5zm-2.7 5c.3-1 1.4-1.5 2.3-1.1l1.2.5 1.3.4c.9.4 1.4 1.4 1 2.3l-1.3 3.5-1.7-1.7a.7.7 0 00-1 0L14.7 13l-1.4-1.3L15 6.8zM5.2 2.3C6.7 2 9 4.7 10 9c.2 1 .4 2 .4 3l-1 1L7 10.7a.7.7 0 00-1 0l-1.8 1.7-.5-2c.3-.3 1.6-.9 3.7-1.3a.7.7 0 10-.3-1.5A16.3 16.3 0 003.5 9a14.7 14.7 0 01-.2-1.8v-.1c.1-.3.9-1 2.4-1.3a.8.8 0 10-.3-1.4c-.7.1-1.3.3-1.9.6.3-1.5 1-2.5 1.7-2.6zM21.8 30H2.1L2 30V13l1.4 1.4c.3.3.8.3 1 0l2.3-2 2.1 2c.3.3.8.3 1 0l1.8-1.7.5-.4 2.2 2.1c.3.3.7.3 1 0l2.2-2 2.2 2a.7.7 0 001 0l1.5-1.4V30l-.3.1z" fill="#FFF" fill-rule="nonzero"/>
</svg>
