<svg width="30" height="33" xmlns="http://www.w3.org/2000/svg">
  <g fill="#FFF" fill-rule="nonzero">
    <path d="M24.19 30.87H1.99V4.35H21.1V2.54H1.58c-.8 0-1.44.65-1.44 1.43v27.31c0 .82.65 1.44 1.44 1.44H24.6c.79 0 1.44-.65 1.44-1.44v-11.1c-.65 0-1.3-.2-1.85-.62v11.31z"/>
    <path d="M29.33 1.64c0-.37-.14-.75-.45-1.02-.3-.28-.65-.45-1.02-.45h-3.6c-.38 0-.76.14-1.03.45-.27.27-.44.65-.44 1.02v13.37c0 .34.13.72.37.96l1.82 2.05c.27.31.68.52 1.1.52.37 0 .75-.17 1.02-.45l.07-.07L29 15.97c.24-.28.37-.62.37-.96l-.03-13.37zm-1.85.38v1.61H24.6v-1.6h2.88zm0 3.43v6.68H24.6V5.45h2.88zm-1.44 11.03l-1.44-1.64v-.86h2.88v.89l-1.44 1.61zM19.7 8.43h-8.77a.92.92 0 00-.93.92c0 .52.42.93.93.93h8.77c.52 0 .93-.41.93-.93a.92.92 0 00-.93-.92zM19.7 13.95h-8.77a.92.92 0 00-.93.92c0 .51.42.93.93.93h8.77c.52 0 .93-.42.93-.93a.92.92 0 00-.93-.92zM19.7 19.46h-8.77a.92.92 0 00-.93.93c0 .51.42.92.93.92h8.77c.52 0 .93-.4.93-.92a.92.92 0 00-.93-.93zM19.7 24.98h-8.77a.92.92 0 00-.93.92c0 .52.42.93.93.93h8.77c.52 0 .93-.41.93-.93a.92.92 0 00-.93-.92zM7.26 8.43h-.78a.92.92 0 00-.93.92c0 .52.41.93.93.93h.78c.52 0 .93-.41.93-.93a.92.92 0 00-.93-.92zM7.26 13.95h-.78a.92.92 0 00-.93.92c0 .51.41.93.93.93h.78c.52 0 .93-.42.93-.93a.92.92 0 00-.93-.92zM7.26 19.46h-.78a.92.92 0 00-.93.93c0 .51.41.92.93.92h.78c.52 0 .93-.4.93-.92a.92.92 0 00-.93-.93zM7.26 24.98h-.78a.92.92 0 00-.93.92c0 .52.41.93.93.93h.78c.52 0 .93-.41.93-.93a.92.92 0 00-.93-.92z"/>
  </g>
</svg>
