<?xml version="1.0" encoding="UTF-8"?>
<svg width="10px" height="10px" viewBox="0 0 10 10" version="1.1" xmlns="http://www.w3.org/2000/svg" xmlns:xlink="http://www.w3.org/1999/xlink">
    <!-- Generator: Sketch 51.3 (57544) - http://www.bohemiancoding.com/sketch -->
    <title>Path</title>
    <desc>Created with Sketch.</desc>
    <defs></defs>
    <g id="Page-1" stroke="none" stroke-width="1" fill="none" fill-rule="evenodd">
        <g id="editor-view_mobile-light" transform="translate(-262.000000, -440.000000)" fill="#7AB800">
            <path d="M263.301716,440 C262.968842,440 262.632025,440.128969 262.379215,440.381779 C261.873595,440.887399 261.873595,441.721554 262.379215,442.22678 L265.154999,445.002564 L262.379215,447.778347 C261.873989,448.283573 261.873989,449.117728 262.379215,449.622954 C262.624532,449.868271 262.964504,450.005127 263.301716,450.005127 C263.638927,450.005127 263.979294,449.868271 264.224216,449.622954 L267,446.84717 L269.775784,449.622954 C270.0211,449.868271 270.361073,450.005127 270.698284,450.005127 C271.035496,450.005127 271.375863,449.868271 271.620785,449.622954 C272.126011,449.117728 272.126011,448.283573 271.620785,447.778347 L268.845001,445.002564 L271.620785,442.22678 C272.126405,441.72116 272.126405,440.887005 271.620785,440.381779 C271.115165,439.876553 270.28101,439.876159 269.775784,440.381779 L267,443.157563 L264.224216,440.381779 C263.971406,440.128969 263.634194,440 263.301716,440 Z" id="Path"></path>
        </g>
    </g>
</svg>