<svg width="32" height="32" xmlns="http://www.w3.org/2000/svg">
  <g fill="#FFF" fill-rule="nonzero">
    <path d="M30.3 12.7l-2-.5-1-2.2 1.1-1.8c.5-.8.3-1.9-.3-2.5l-1.8-1.8c-.6-.6-1.7-.8-2.5-.3l-1.8 1-2.2-.8-.5-2a2.2 2.2 0 00-2-1.6h-2.5c-1 0-1.8.6-2 1.5l-.6 2-2.1 1-1.9-1.1c-.8-.5-1.8-.3-2.5.3L3.9 5.7c-.6.6-.8 1.7-.3 2.5l1 1.8-.8 2.2-2 .5c-1 .3-1.6 1.1-1.6 2v2.5a2 2 0 001.5 2l2 .6 1 2.1-1.1 1.9c-.5.8-.3 1.8.3 2.5L5.7 28c.6.7 1.7.8 2.5.4l1.8-1 2.2.8.5 2c.3 1 1.1 1.6 2 1.6h2.5c1 0 1.8-.6 2-1.6l.6-2 2.1-.9 1.9 1c.8.5 1.8.4 2.5-.3l1.7-1.7c.7-.7.8-1.7.4-2.5l-1-1.9.8-2.1 2-.6c1-.2 1.6-1 1.6-2v-2.4a2 2 0 00-1.5-2zm-.3 4.5c0 .2 0 .3-.2.4l-2.9.7-1.5 3.8 1.5 2.6-.1.4-1.7 1.7c-.1.1-.3.1-.4 0L22 25.5l-3.8 1.5-.8 2.9c0 .1-.1.2-.3.2h-2.4c-.2 0-.3 0-.4-.2l-.7-2.9-3.8-1.5-2.6 1.5-.4-.1-1.7-1.7a.4.4 0 010-.4L6.5 22l-1.5-3.8-2.9-.8c-.1 0-.2-.1-.2-.3v-2.4c0-.2 0-.3.2-.4l2.9-.8L6.6 10 5.1 7.3l.1-.4 1.7-1.7c.1-.1.3-.1.4 0L10 6.5l3.8-1.5.8-2.9c0-.1.1-.2.3-.2h2.4c.2 0 .3 0 .4.2l.8 2.9L22 6.6l2.6-1.4c.1-.1.3-.1.4 0L26.8 7c.1 0 .2.2.1.4L25.4 10l1.5 3.7 2.9.8c.1 0 .2.1.2.3v2.4z"/>
    <path d="M16 10a6 6 0 00-6 6 6 6 0 006 6 6 6 0 006-6 6 6 0 00-6-6zm0 10.2a4.2 4.2 0 110-8.4 4.2 4.2 0 010 8.4z"/>
  </g>
</svg>
