<?xml version="1.0" encoding="UTF-8"?>
<svg width="14px" height="16px" viewBox="0 0 14 16" version="1.1" xmlns="http://www.w3.org/2000/svg" xmlns:xlink="http://www.w3.org/1999/xlink">
    <!-- Generator: Sketch 51.3 (57544) - http://www.bohemiancoding.com/sketch -->
    <title>Group 5 Copy 5</title>
    <desc>Created with Sketch.</desc>
    <defs></defs>
    <g id="Page-1" stroke="none" stroke-width="1" fill="none" fill-rule="evenodd">
        <g id="editor-view_mobile-light" transform="translate(-119.000000, -568.000000)" fill="#FFFFFF" fill-rule="nonzero">
            <g id="Group-5-Copy-5" transform="translate(119.000000, 568.000000)">
                <path d="M0,5.05928854 C1.40423466e-16,5.75783051 0.566280158,6.32411067 1.26482213,6.32411067 L1.26482213,12.6482213 C1.26482213,14.0453053 2.39738245,15.1778656 3.7944664,15.1778656 L10.1185771,15.1778656 C11.515661,15.1778656 12.6482213,14.0453053 12.6482213,12.6482213 L12.6482213,6.32411067 C13.3467633,6.32411067 13.9130435,5.75783051 13.9130435,5.05928854 L13.9130435,3.7944664 C13.9130435,3.09592443 13.3467633,2.52964427 12.6482213,2.52964427 L10.1185771,2.52964427 L10.1185771,1.26482213 C10.1185771,0.566280158 9.55229692,7.02117328e-17 8.85375494,0 L5.05928854,0 C4.36074656,-3.51058664e-17 3.7944664,0.566280158 3.7944664,1.26482213 L3.7944664,2.52964427 L1.26482213,2.52964427 C0.566280158,2.52964427 1.40423466e-16,3.09592443 0,3.7944664 L0,5.05928854 Z M11.3833992,12.6482213 C11.3833992,13.3467633 10.8171191,13.9130435 10.1185771,13.9130435 L3.7944664,13.9130435 C3.09592443,13.9130435 2.52964427,13.3467633 2.52964427,12.6482213 L2.52964427,6.32411067 L11.3833992,6.32411067 L11.3833992,12.6482213 Z M5.05928854,1.26482213 L8.85375494,1.26482213 L8.85375494,2.52964427 L5.05928854,2.52964427 L5.05928854,1.26482213 Z M1.26482213,3.7944664 L12.6482213,3.7944664 L12.6482213,5.05928854 L1.26482213,5.05928854 L1.26482213,3.7944664 Z" id="Shape"></path>
                <path d="M4.42687747,12.6482213 C4.77614846,12.6482213 5.05928854,12.3650813 5.05928854,12.0158103 L5.05928854,8.22134387 C5.05928854,7.87207289 4.77614846,7.58893281 4.42687747,7.58893281 C4.07760648,7.58893281 3.7944664,7.87207289 3.7944664,8.22134387 L3.7944664,12.0158103 C3.7944664,12.3650813 4.07760648,12.6482213 4.42687747,12.6482213 Z" id="Shape"></path>
                <path d="M6.95652174,12.6482213 C7.30579273,12.6482213 7.58893281,12.3650813 7.58893281,12.0158103 L7.58893281,8.22134387 C7.58893281,7.87207289 7.30579273,7.58893281 6.95652174,7.58893281 C6.60725075,7.58893281 6.32411067,7.87207289 6.32411067,8.22134387 L6.32411067,12.0158103 C6.32411067,12.3650813 6.60725075,12.6482213 6.95652174,12.6482213 Z" id="Shape"></path>
                <path d="M9.48616601,12.6482213 C9.835437,12.6482213 10.1185771,12.3650813 10.1185771,12.0158103 L10.1185771,8.22134387 C10.1185771,7.87207289 9.835437,7.58893281 9.48616601,7.58893281 C9.13689502,7.58893281 8.85375494,7.87207289 8.85375494,8.22134387 L8.85375494,12.0158103 C8.85375494,12.3650813 9.13689502,12.6482213 9.48616601,12.6482213 Z" id="Shape"></path>
            </g>
        </g>
    </g>
</svg>